<?xml version="1.0" standalone="no"?>
<!DOCTYPE svg PUBLIC "-//W3C//DTD SVG 20010904//EN" "http://www.w3.org/TR/2001/REC-SVG-20010904/DTD/svg10.dtd">
<!-- Created using Krita: https://krita.org -->
<svg xmlns="http://www.w3.org/2000/svg" 
    xmlns:xlink="http://www.w3.org/1999/xlink"
    xmlns:krita="http://krita.org/namespaces/svg/krita"
    xmlns:sodipodi="http://sodipodi.sourceforge.net/DTD/sodipodi-0.dtd"
    width="184.32pt"
    height="184.32pt"
    viewBox="0 0 184.32 184.32">
<defs/>
<circle id="shape0" transform="translate(36, 35.28)" r="58.32" cx="58.32" cy="58.32" fill="#787878" fill-rule="evenodd" stroke="#787878" stroke-width="3.15976556442417" stroke-linecap="square" stroke-linejoin="bevel"/><ellipse id="shape1" transform="translate(114.48, 31.68)" rx="20.52" ry="20.52" cx="20.52" cy="20.52" fill="#787878" fill-rule="evenodd" stroke="#787878" stroke-width="3.15976556442417" stroke-linecap="square" stroke-linejoin="bevel"/><path id="shape2" transform="translate(82.3417691426326, 11.1804110256292)" fill="#787878" fill-rule="evenodd" stroke="#787878" stroke-width="3.15976556442417" stroke-linecap="square" stroke-linejoin="bevel" d="M1.89822 37.1496C1.89822 27.343 -2.71275 18.5615 2.43822 8.25959C3.62425 5.88753 10.236 -2.44389 9.18822 0.699588C6.83368 7.76323 7.83822 17.2944 7.83822 24.9996C7.83822 26.5434 10.0214 32.8296 11.6182 32.8296" sodipodi:nodetypes="ccccc"/><path id="shape3" transform="translate(37.677581757235, 21.4956592277911)" fill="#787878" fill-rule="evenodd" stroke="#787878" stroke-width="3.15976556442417" stroke-linecap="square" stroke-linejoin="bevel" d="M29.2824 27.9143C25.6509 27.9143 17.3847 12.9835 12.8124 9.55434C-6.51643 -4.94229 -0.47656 -2.71361 8.22241 14.6843C10.067 18.3735 24.4224 26.9551 24.4224 28.9943" sodipodi:nodetypes="cccc"/><path id="shape4" transform="translate(8.90999925472835, 61.5708087552908)" fill="#787878" fill-rule="evenodd" stroke="#787878" stroke-width="3.15976556442417" stroke-linecap="square" stroke-linejoin="bevel" d="M41.85 2.14919C30.0397 2.14919 17.9478 -2.30341 6.21 1.60919C4.1805 2.28568 0 3.22919 0 3.22919C0 3.22919 36.18 1.19878 36.18 13.7592" sodipodi:nodetypes="cccc"/><path id="shape5" transform="translate(145.799987804646, 80.1333661482738)" fill="#787878" fill-rule="evenodd" stroke="#787878" stroke-width="3.15976556442417" stroke-linecap="square" stroke-linejoin="bevel" d="M0.54 7.07663C8.29601 7.07663 20.2343 6.65721 26.46 1.67663C35.5922 -5.62913 19.7462 13.1866 17.01 15.1766C12.1529 18.7091 0 15.1109 0 21.1166" sodipodi:nodetypes="cccc"/><path id="shape6" transform="translate(132.569988911261, 125.009989543613)" fill="#787878" fill-rule="evenodd" stroke="#787878" stroke-width="3.15976556442417" stroke-linecap="square" stroke-linejoin="bevel" d="M0 0C19.3127 0 31.5486 29.6586 28.62 26.73C25.3906 23.5006 20.6372 19.2991 16.2 17.82C11.0968 16.1189 0.54 8.72754 0.54 3.51" sodipodi:nodetypes="cccc"/><path id="shape7" transform="translate(110.159990785732, 138.77998839183)" fill="#787878" fill-rule="evenodd" stroke="#787878" stroke-width="3.15976556442417" stroke-linecap="square" stroke-linejoin="bevel" d="M6.21 0C6.21 13.1045 17.3228 23.9444 11.07 36.45C8.47444 41.6411 8.64 39.4932 8.64 34.56C8.64 25.3385 0 14.6894 0 9.72" sodipodi:nodetypes="cccc"/>
</svg>
